# xmcd
#
# Track frame offsets: 
#        150
#        18465
#        32306
#        57574
#        70262
#        96085
#        114803
#        156165
#        174937
#        189453
#        201799
#
# Disc length: 3011 seconds
#
# Revision: 1
# Processed by: cddbd v1.5.1PL2 Copyright (c) Steve Scherf et al.
# Submitted via: ExactAudioCopy v0.95b4
#
DISCID=860bc10b
DTITLE=Shozo - Sounds of Breath
DYEAR=1995
DGENRE=Alternative
TTITLE0=Away From Babylon
TTITLE1=On And On And On And...
TTITLE2=My Sweet Golborne Road
TTITLE3=Simple Tune
TTITLE4=Sailing
TTITLE5=Which Way To Go?
TTITLE6=Nemulenu-Yolu
TTITLE7=Yume-No-Ato
TTITLE8=Traffic Jamming
TTITLE9=Behind The Mirror
TTITLE10=Journey's End
EXTD=
EXTT0=
EXTT1=
EXTT2=
EXTT3=
EXTT4=
EXTT5=
EXTT6=
EXTT7=
EXTT8=
EXTT9=
EXTT10=
PLAYORDER=
